<?xml version="1.0" encoding="UTF-8" standalone="no"?>
<!-- Created with Inkscape (http://www.inkscape.org/) -->

<svg
   xmlns:dc="http://purl.org/dc/elements/1.1/"
   xmlns:cc="http://creativecommons.org/ns#"
   xmlns:rdf="http://www.w3.org/1999/02/22-rdf-syntax-ns#"
   xmlns:svg="http://www.w3.org/2000/svg"
   xmlns="http://www.w3.org/2000/svg"
   xmlns:sodipodi="http://sodipodi.sourceforge.net/DTD/sodipodi-0.dtd"
   xmlns:inkscape="http://www.inkscape.org/namespaces/inkscape"
   width="119.11298mm"
   height="35.543072mm"
   viewBox="0 0 422.05388 125.94002"
   id="svg4198"
   version="1.1"
   inkscape:version="0.91 r13725"
   sodipodi:docname="icon-cortana.svg">
  <defs
     id="defs4200" />
  <sodipodi:namedview
     id="base"
     pagecolor="#ffffff"
     bordercolor="#666666"
     borderopacity="1.0"
     inkscape:pageopacity="0.0"
     inkscape:pageshadow="2"
     inkscape:zoom="1.979899"
     inkscape:cx="293.66701"
     inkscape:cy="15.619587"
     inkscape:document-units="px"
     inkscape:current-layer="layer1"
     showgrid="false"
     fit-margin-top="0"
     fit-margin-left="0"
     fit-margin-right="0"
     fit-margin-bottom="0"
     inkscape:window-width="1920"
     inkscape:window-height="1018"
     inkscape:window-x="-8"
     inkscape:window-y="730"
     inkscape:window-maximized="1" />
  <metadata
     id="metadata4203">
    <rdf:RDF>
      <cc:Work
         rdf:about="">
        <dc:format>image/svg+xml</dc:format>
        <dc:type
           rdf:resource="http://purl.org/dc/dcmitype/StillImage" />
        <dc:title></dc:title>
      </cc:Work>
    </rdf:RDF>
  </metadata>
  <g
     inkscape:label="Layer 1"
     inkscape:groupmode="layer"
     id="layer1"
     transform="translate(-64.425157,-733.23439)">
    <path
       style="fill:#000000;stroke:#000000;stroke-width:0;stroke-miterlimit:4;stroke-dasharray:none;stroke-opacity:1"
       d="m 283.18551,856.84139 c -3.06046,-1.24088 -6.29187,-3.35165 -7.1809,-4.69062 -2.2218,-3.3462 -3.97464,-21.86068 -3.71805,-39.27211 l 0.21344,-14.48354 -6.53128,2.29604 c -3.5922,1.26283 -7.54196,2.29605 -8.77723,2.29605 -1.23529,0 -4.80414,2.39063 -7.93078,5.3125 -6.26917,5.85862 -7.16322,8.60988 -9.85027,30.3125 -1.46174,11.80616 -2.93537,14.375 -8.24629,14.375 -5.41644,0 -6.16415,-2.82066 -6.16415,-23.25359 0,-13.62786 -0.44876,-19.56809 -1.5625,-20.68269 -2.17396,-2.17566 -1.9893,-11.65339 0.26348,-13.52303 1.00428,-0.83349 4.02146,-1.80991 6.70482,-2.16982 4.10769,-0.55096 5.20211,-0.19287 6.92402,2.2655 1.12485,1.60594 2.04518,3.91974 2.04518,5.14176 0,2.6588 1.07259,2.74989 4.23011,0.35925 1.29531,-0.98071 5.38009,-2.46007 9.07728,-3.28746 3.69718,-0.8274 7.34687,-2.25711 8.11043,-3.17714 0.76357,-0.92003 3.14754,-1.68139 5.29773,-1.69192 6.87299,-0.0337 7.51258,-1.1643 6.62154,-11.70534 -0.7361,-8.7081 -0.57906,-9.66852 1.96913,-12.04252 6.24708,-5.82004 13.22139,-4.22377 17.47331,3.99926 1.91443,3.70246 2.14527,5.46566 1.17542,8.97821 -0.66379,2.40401 -0.8877,4.69012 -0.49759,5.08023 0.39013,0.39012 4.20149,0.7093 8.46973,0.7093 10.16824,0 15.57291,1.14951 15.57291,3.31219 0,2.39463 -4.02384,3.7192 -14.47139,4.76371 -4.8655,0.48643 -9.41356,1.25897 -10.10677,1.71676 -1.76053,1.1626 -3.95488,16.8424 -4.81414,34.39962 -0.86136,17.60013 0.3019,20.80772 7.54611,20.80772 3.43098,0 4.34619,0.49829 4.34619,2.36626 0,4.44115 -7.26005,5.10839 -16.18949,1.48791 z m 2.9749,-4.44048 c -1.7286,-2.63817 -1.90542,-5.67834 -1.21781,-20.93751 0.8885,-19.71696 2.9463,-34.89088 4.91001,-36.20564 0.7019,-0.46996 5.38159,-1.23917 10.39929,-1.70936 5.0177,-0.4702 9.1231,-1.32766 9.1231,-1.90547 0,-0.57781 -4.35938,-1.21484 -9.6875,-1.41564 L 290,789.86221 l 0.36581,-6.99824 c 0.32969,-6.30725 -0.006,-7.39632 -3.40046,-11.03004 l -3.76628,-4.03182 -3.78703,2.23706 c -2.08288,1.23038 -3.8282,2.81891 -3.8785,3.53005 -0.0503,0.71114 -0.0113,5.45434 0.087,10.54044 0.12462,6.45843 -0.31901,9.56289 -1.47104,10.29336 -1.22579,0.77723 -1.25224,1.05083 -0.103,1.06505 1.15243,0.0143 1.36154,2.32864 0.82055,9.08164 -0.88095,10.99682 1.28401,40.99928 3.21945,44.61569 1.08429,2.026 5.81631,5.04323 9.75475,6.21985 0.18772,0.0561 -0.56869,-1.28688 -1.6809,-2.98434 z m -49.4784,-13.03269 c 0.79365,-4.80567 1.44299,-10.5114 1.44299,-12.67941 0,-8.0004 3.68641,-17.27587 8.24923,-20.7561 5.48464,-4.18334 4.56239,-5.36454 -1.34022,-1.71652 -4.9371,3.05129 -8.15901,2.63616 -8.15901,-1.05127 0,-1.32041 -1.02506,-3.66665 -2.27793,-5.21387 -2.105,-2.59956 -2.55459,-2.68052 -5.92221,-1.06647 -4.4564,2.1359 -5.13247,4.9483 -2.51535,10.4635 1.59064,3.35201 1.93031,7.74983 1.66881,21.60622 -0.24888,13.18855 0.0815,17.89144 1.36544,19.43896 3.17093,3.82179 5.91229,0.51782 7.48825,-9.02504 z m 30.79924,-43.68862 c -1.18346,-0.23793 -3.04414,0.45979 -4.13485,1.55049 -1.8108,1.81081 -1.62385,1.84839 2.15175,0.43261 2.84655,-1.0674 3.46444,-1.68528 1.9831,-1.9831 z m 116.43895,58.21164 c -3.20916,-2.3466 -4.36255,-9.20887 -5.29926,-31.52903 -0.53869,-12.83611 -1.44945,-21.20906 -2.54264,-23.37542 -6.19323,-12.2731 7.0513,-20.24393 16.01995,-9.64114 l 3.34825,3.95832 8.13025,-1.53407 c 4.47164,-0.84374 8.79335,-1.12425 9.6038,-0.62336 3.40835,2.10648 7.76751,15.31926 9.41359,28.53293 0.92957,7.46199 2.31622,14.32166 3.08145,15.2437 2.50539,3.0188 0.92849,7.39821 -2.81949,7.83036 -3.98031,0.45893 -3.7294,1.29057 -8.03816,-26.64132 -1.23619,-8.01372 -1.81724,-9.29327 -5.36838,-11.82191 l -3.66946,-2.61289 -4.46369,3.91917 c -2.45503,2.15555 -4.82985,5.40338 -5.27738,7.2174 -0.44753,1.81403 -1.93209,5.4585 -3.29902,8.09882 -2.21018,4.26914 -2.40138,6.36687 -1.72711,18.9487 0.64608,12.05543 0.47345,14.25737 -1.16707,14.88691 -2.73167,1.04824 -3.46488,0.94217 -5.92563,-0.85718 z m 4.39181,-16.5133 c -0.39235,-12.35962 -0.11675,-15.01423 1.97875,-19.0625 1.33902,-2.58678 2.80074,-6.18743 3.24827,-8.00146 1.05079,-4.25933 8.81944,-11.07677 12.62227,-11.07677 1.62212,0 4.6963,1.63193 6.8315,3.62651 2.9898,2.79289 3.9024,4.73242 3.97006,8.4375 0.0484,2.64605 0.57128,5.93599 1.16214,7.31099 2.43235,5.66039 1.17166,-6.98272 -1.3353,-13.39122 -4.79799,-12.2651 -4.74301,-12.22652 -14.5067,-10.17988 l -8.46719,1.77487 -3.7829,-4.35395 c -4.9418,-5.68778 -9.51259,-6.45052 -11.90187,-1.98611 -1.00037,1.86921 -0.85574,3.40953 0.58102,6.18793 1.25289,2.42283 1.92746,7.27888 1.95504,14.07379 0.0585,14.41591 2.08052,35.4588 3.69764,38.48038 0.74152,1.38555 2.03556,2.51919 2.87566,2.51919 1.14105,0 1.41212,-3.6323 1.07161,-14.35927 z m 34.9219,0.21818 c -0.7474,-0.7474 -1.40332,-2.51204 -1.4576,-3.92141 -0.0551,-1.43078 -0.38502,-1.84874 -0.74703,-0.94636 -0.99953,2.49144 0.74354,7.96955 2.24128,7.0439 0.92439,-0.5713 0.91336,-1.22612 -0.0366,-2.17613 z m -2.99725,-14.29641 c -0.31441,-1.20312 -0.57166,-0.21875 -0.57166,2.1875 0,2.40625 0.25725,3.39063 0.57166,2.1875 0.3144,-1.20312 0.3144,-3.17187 0,-4.375 z m -93.5034,25.1825 c -5.03807,-2.09272 -7.35826,-5.99837 -7.35826,-12.38641 0,-8.45079 6.6822,-16.89879 13.31786,-16.83716 2.67076,0.0248 14.06144,-5.22521 14.13358,-6.51422 0.0267,-0.47729 -1.23641,-2.36167 -2.80693,-4.1875 -3.11911,-3.62618 -9.6279,-4.50452 -14.41095,-1.94471 -2.76152,1.47793 -12.5166,1.85947 -15.75632,0.61626 -1.2516,-0.48028 -1.97724,-2.27627 -1.97724,-4.89376 0,-3.35077 1.09704,-5.10068 5.78416,-9.22646 6.12287,-5.38955 11.8134,-7.60264 19.57814,-7.61407 4.80169,-0.007 13.0771,3.44139 15.51235,6.46417 3.38361,4.19995 10.32735,35.82845 10.78579,49.12896 0.26492,7.68621 -2.82774,9.35291 -5.99389,3.23025 l -1.97805,-3.82512 -4.65675,3.07377 c -5.05084,3.3339 -14.37211,6.95983 -17.62641,6.85659 -1.11669,-0.0354 -4.06288,-0.90869 -6.54708,-1.94059 z m 23.25719,-8.52797 c 5.5162,-4.2074 7.24111,-4.05865 9.80422,0.84547 l 2.12326,4.0625 -0.62039,-3.75 c -3.62695,-21.92323 -4.97439,-28.74135 -7.16394,-36.25 -2.99211,-10.26083 -3.69241,-11.28026 -9.93768,-14.46636 -5.37143,-2.7403 -7.359,-2.90494 -13.72426,-1.13686 -4.93011,1.36944 -16.09666,10.4403 -16.09666,13.07572 0,3.56968 6.18938,4.04082 15.04266,1.14506 8.37363,-2.73888 14.54933,-1.25268 18.3732,4.42157 1.55878,2.31307 2.83414,4.88628 2.83414,5.71826 0,1.84886 -11.76509,8.11761 -15.23499,8.11761 -5.82587,0 -13.51501,8.16908 -13.51501,14.35859 0,3.97677 3.10014,8.11384 7.35826,9.81942 4.06628,1.62875 5.11625,1.58214 10.52809,-0.46738 3.30625,-1.25212 7.90934,-3.72423 10.2291,-5.4936 z m -21.03211,0.94963 c -1.73518,-1.73517 -0.73414,-8.95563 1.66433,-12.00479 2.68101,-3.40834 11.97067,-7.16187 17.72501,-7.16187 3.25279,0 3.52732,0.3708 3.52732,4.7643 0,5.53899 -2.74381,9.03386 -9.9979,12.73463 -4.82906,2.4636 -11.28896,3.29753 -12.91876,1.66773 z m 10.41876,-4.16773 c 6.03387,-3.07825 9.9979,-7.18987 9.9979,-10.37014 0,-1.98184 -0.58665,-2.25257 -3.36829,-1.55443 -9.8667,2.47639 -16.61941,8.14728 -14.93339,12.54099 0.95507,2.48883 2.43189,2.3792 8.30378,-0.61642 z m 110.41372,12.88245 c -1.49003,-0.2905 -4.16191,-1.87454 -5.9375,-3.52009 -2.69125,-2.49416 -3.22695,-4.09361 -3.22008,-9.6141 0.0125,-9.79089 5.70961,-17.0817 13.44326,-17.2029 3.07081,-0.0481 13.95839,-5.12677 14.01417,-6.53708 0.0719,-1.81673 -5.7007,-7.13456 -8.09067,-7.45334 -1.375,-0.18339 -5.875,0.39478 -10,1.28482 -4.125,0.89005 -9.46875,1.43108 -11.875,1.20229 -4.01702,-0.38194 -4.40005,-0.77396 -4.6812,-4.79098 -0.3681,-5.25933 1.96305,-8.33126 10.36625,-13.66041 4.81226,-3.05185 7.4249,-3.83959 12.73447,-3.83959 7.5344,0 15.4872,3.3934 18.34712,7.82858 2.04901,3.17761 4.7944,14.12496 7.44102,29.67142 0.99485,5.84375 2.44786,13.10989 3.22893,16.14696 0.78107,3.03708 1.13252,6.27145 0.781,7.1875 -1.16572,3.0378 -5.56809,1.83048 -7.59124,-2.08185 l -1.93785,-3.74738 -4.65675,3.07377 c -5.21246,3.44058 -14.5327,7.01015 -17.62641,6.75078 -1.11669,-0.0936 -3.24947,-0.40792 -4.73952,-0.6984 z m 21.44963,-9.66435 c 5.5162,-4.2074 7.24111,-4.05865 9.80423,0.84547 l 2.12325,4.0625 -0.60621,-3.75 c -4.22301,-26.12364 -7.65041,-41.38889 -10.17008,-45.29642 -2.4142,-3.74396 -10.68255,-7.82858 -15.84712,-7.82858 -6.62796,0 -20.75428,9.96433 -20.87793,14.72673 -0.0746,2.87503 3.77375,3.16594 13.51146,1.02135 6.48222,-1.42762 10.78241,-1.75999 13.32195,-1.02967 3.6242,1.04223 9.375,7.76557 9.375,10.96044 0,1.95924 -11.48636,8.05603 -15.28949,8.11544 -6.7413,0.10532 -13.43774,7.42429 -13.45227,14.7029 -0.009,4.57666 4.49787,9.77602 9.15758,10.56435 3.68004,0.62257 13.79877,-3.16575 18.94963,-7.09451 z m -21.03211,0.94963 c -1.73518,-1.73517 -0.73414,-8.95563 1.66433,-12.00479 2.68101,-3.40834 11.97067,-7.16187 17.72501,-7.16187 3.25279,0 3.52732,0.3708 3.52732,4.7643 0,5.53899 -2.74381,9.03386 -9.9979,12.73463 -4.82906,2.4636 -11.28896,3.29753 -12.91876,1.66773 z m 10.41876,-4.16773 c 6.03388,-3.07825 9.9979,-7.18987 9.9979,-10.37014 0,-1.98184 -0.58665,-2.25257 -3.36829,-1.55443 -9.8667,2.47639 -16.61941,8.14728 -14.93339,12.54099 0.95507,2.48883 2.43189,2.3792 8.30378,-0.61642 z m -286.90034,7.00911 c -5.30524,-2.31164 -11.57452,-9.88407 -12.56816,-15.18061 -1.03192,-5.50062 0.33972,-18.51034 2.49332,-23.6487 0.87683,-2.09205 3.13573,-5.63185 5.01978,-7.86623 2.98851,-3.54422 4.19165,-4.0625 9.43067,-4.0625 4.3228,0 6.21772,0.55393 6.76389,1.97723 1.19191,3.10608 0.88878,7.79486 -0.56192,8.69144 -2.36384,1.46094 -7.42934,14.05961 -7.42934,18.47791 0,9.51323 13.03154,15.82725 19.74916,9.56882 5.83945,-5.44026 4.53748,-13.77202 -3.05734,-19.56486 -2.3055,-1.75849 -4.19182,-4.2555 -4.19182,-5.5489 0,-1.2934 -0.5625,-2.35164 -1.25,-2.35164 -0.6875,0 -1.25,-0.84375 -1.25,-1.875 0,-1.90034 4.44204,-2.68064 5.20834,-0.91491 0.22916,0.52805 3.33817,2.8164 6.90891,5.08523 6.56324,4.17024 11.63275,11.7042 11.63275,17.28781 0,8.02556 -7.0957,18.56809 -13.75,20.42927 -6.15162,1.72058 -18.66786,1.44786 -23.14824,-0.50436 z m 20.64824,-1.99564 c 4.86339,-1.36026 10.02569,-7.09791 12.29196,-13.6619 1.27001,-3.67847 1.1174,-5.01485 -1.09446,-9.58396 -1.41365,-2.9202 -3.93421,-6.20315 -5.60126,-7.29544 l -3.031,-1.98599 3.09238,4.55688 c 4.76218,7.01746 3.92438,16.96126 -1.7993,21.35576 -1.09082,0.8375 -5.11091,1.54062 -8.93352,1.5625 -6.12243,0.035 -7.4251,-0.42455 -10.9375,-3.85857 -3.51601,-3.43756 -3.9873,-4.7015 -3.9873,-10.69358 0,-6.71955 3.26729,-16.24535 7.04501,-20.53983 2.56598,-2.91696 0.83007,-6.11827 -3.31764,-6.11827 -3.86096,0 -9.20305,5.32948 -11.90311,11.875 -2.49956,6.05948 -3.43812,16.35996 -1.91202,20.98407 1.55945,4.7252 7.88123,11.37599 12.58776,13.24289 4.08784,1.6215 12.01635,1.69418 17.5,0.16044 z m -85.1213,1.27301 c -13.814876,-2.46056 -34.792033,-18.79723 -41.738363,-32.50516 -2.8385,-5.60151 -3.13506,-7.61281 -3.08546,-20.92619 0.0378,-10.14568 0.65365,-16.28496 1.9791,-19.72906 1.05834,-2.75 2.41579,-7.73382 3.01657,-11.07516 0.60078,-3.34133 1.99074,-7.44631 3.08881,-9.12217 2.44914,-3.73786 8.59704,-7.59374 13.685177,-8.58315 2.09026,-0.40647 8.23342,-2.46038 13.65146,-4.56427 7.559976,-2.93562 11.048476,-3.66041 14.999996,-3.1165 13.57116,1.86801 24.74116,14.38075 18.74865,21.0024 -4.3398,4.79542 -6.15608,5.0516 -15.13014,2.13402 -9.75201,-3.1705 -10.77313,-3.18438 -20.031466,-0.27227 -5.25141,1.65177 -7.67635,3.28064 -10.32284,6.93401 -8.299407,11.457 -10.086557,36.23769 -3.41866,47.40323 6.67355,11.17499 14.94681,17.38486 23.161436,17.38486 1.9598,0 6.48783,-0.8685 10.06229,-1.93 5.58869,-1.65966 7.38733,-3.06036 12.84098,-10 3.48808,-4.4385 7.1116,-8.07 8.05227,-8.07 0.94068,0 3.06566,-1.46168 4.7222,-3.24818 4.32356,-4.66277 7.75414,-3.62552 7.57716,2.29099 -0.31652,10.58107 -11.36445,29.95227 -19.51287,34.21342 -3.98008,2.08135 -15.50011,2.99856 -22.3463,1.77918 z m 19.0365,-3.98149 c 6.53089,-2.45181 16.2801,-16.88259 19.64934,-29.08495 1.38674,-5.02236 0.5178,-5.66811 -2.64951,-1.96897 -1.17731,1.375 -2.93847,2.5 -3.91369,2.5 -0.97523,0 -4.62702,3.6315 -8.1151,8.07 -5.45365,6.93964 -7.25229,8.34034 -12.84098,10 -8.05871,2.39318 -17.31924,2.47581 -22.758656,0.20308 -5.00106,-2.08958 -11.00041,-8.18151 -15.533357,-15.77308 -2.96605,-4.9674 -3.41194,-7.1781 -3.81403,-18.90991 -0.50874,-14.84328 1.50609,-24.53694 6.784147,-32.63965 3.22474,-4.95051 7.15882,-7.09987 17.550976,-9.58884 5.70052,-1.3653 7.37919,-1.23505 15.37206,1.1927 8.59338,2.61016 9.07588,2.63201 11.41315,0.51681 1.34225,-1.21472 2.44045,-2.92199 2.44045,-3.79394 0,-2.5932 -6.15962,-9.12398 -10.41533,-11.04293 -7.79594,-3.51528 -9.35991,-3.48605 -19.26941,0.36015 -5.329636,2.06861 -11.400466,4.09366 -13.490726,4.50013 -5.088137,0.98941 -11.236037,4.84529 -13.685177,8.58315 -1.09807,1.67586 -2.48803,5.78084 -3.08881,9.12217 -0.60078,3.34134 -1.95823,8.32516 -3.01657,11.07516 -1.2413,3.22543 -1.94371,9.34027 -1.9791,17.22906 -0.0478,10.64706 0.35137,13.03073 3.08546,18.42619 1.72718,3.40843 6.34162,9.34769 10.25431,13.19837 17.780797,17.49897 33.423133,23.30543 48.020553,17.8253 z"
       id="path5305"
       inkscape:connector-curvature="0" />
    <path
       style="opacity:1;fill:#000000;fill-opacity:1;fill-rule:evenodd;stroke:#000000;stroke-width:3;stroke-linecap:round;stroke-linejoin:round;stroke-miterlimit:4;stroke-dasharray:none;stroke-opacity:1"
       d="m 229.16572,847.62215 c -0.61826,-1.12726 -0.92485,-6.78649 -1.0268,-18.95306 -0.13409,-16.00109 -0.27117,-17.70231 -1.76817,-21.94272 -1.33729,-3.78806 -1.47749,-4.91572 -0.79688,-6.40951 0.94414,-2.07216 5.16758,-4.36003 6.85402,-3.71289 1.47562,0.56625 3.9915,4.7162 3.99492,6.58961 0.006,3.36509 3.58195,4.14279 8.04637,1.75 3.84107,-2.05869 7.20365,-3.07513 0.58404,1.80736 -5.94641,4.38595 -6.13725,9.14182 -8.19226,26.90455 -1.18404,10.23437 -3.02519,15.57381 -5.37019,15.57381 -0.79398,0 -1.84025,-0.72322 -2.32505,-1.60715 z"
       id="path5307"
       inkscape:connector-curvature="0"
       sodipodi:nodetypes="ssssscsssss" />
    <path
       style="opacity:1;fill:#000000;fill-opacity:1;fill-rule:evenodd;stroke:#000000;stroke-width:3;stroke-linecap:round;stroke-linejoin:round;stroke-miterlimit:4;stroke-dasharray:none;stroke-opacity:1"
       d="m 282.4255,852.20552 c -1.53215,-1.11307 -3.15403,-2.47914 -3.60417,-3.03571 -2.01293,-2.48886 -4.21502,-28.68992 -3.59016,-42.71655 0.25218,-5.66075 0.14479,-10.08712 -0.26322,-10.84951 -0.44901,-0.83897 -0.43959,-1.44202 0.027,-1.7304 0.42265,-0.26121 0.71622,-4.47324 0.71622,-10.27599 0,-10.79181 -0.0409,-10.68146 5.19688,-14.01053 1.90418,-1.21027 2.04249,-1.20695 3.49742,0.084 0.83316,0.73928 2.43207,2.59772 3.55313,4.12988 1.89322,2.58748 2.03829,3.25513 2.03829,9.38098 0,7.70876 -0.36801,7.39754 8.92857,7.55089 3.14285,0.0519 6.67857,0.31816 7.85714,0.59182 l 2.14286,0.49754 -2.85715,0.47621 c -1.57142,0.26191 -5.5758,0.82804 -8.8986,1.25806 -3.32281,0.43002 -6.57664,1.06826 -7.23074,1.41833 -2.085,1.11585 -3.64353,10.15292 -4.92208,28.54043 -1.06844,15.36592 -0.94348,25.65345 0.34154,28.11736 0.58686,1.12527 1.06703,2.16991 1.06703,2.32143 0,0.73196 -1.47076,0.0891 -3.99998,-1.74828 z"
       id="path5309"
       inkscape:connector-curvature="0" />
    <path
       style="opacity:1;fill:#000000;fill-opacity:1;fill-rule:evenodd;stroke:#000000;stroke-width:3;stroke-linecap:round;stroke-linejoin:round;stroke-miterlimit:4;stroke-dasharray:none;stroke-opacity:1"
       d="m 180.0608,842.04442 c -3.72774,-0.75365 -7.85371,-3.46061 -11.15717,-7.31996 -3.78785,-4.42525 -4.71141,-7.02662 -4.68474,-13.19538 0.0419,-9.68875 2.79727,-17.04812 8.39794,-22.43016 3.52639,-3.38873 5.84722,-3.98487 8.13952,-2.09075 l 1.74056,1.43821 -1.63515,2.71289 c -4.68034,7.7652 -6.55966,13.95753 -6.56799,21.64145 -0.007,6.16583 1.10183,8.59911 5.41282,11.88155 2.53456,1.92985 3.08715,2.04692 9.65385,2.04511 7.80715,-0.002 9.7168,-0.83687 12.42218,-5.42989 1.37093,-2.32747 1.65503,-6.52032 1.74169,-10.49671 0.0352,-1.61496 1.09224,-3.61598 0.53615,-4.78577 -0.74702,-1.57143 -3.77533,-3.17857 -3.95166,-3.57143 -0.17632,-0.39286 -4.17682,-4.1429 -3.33414,-3.3949 1.89455,1.68168 10.36761,13.44714 10.35814,15.47327 -0.0219,4.68665 -6.82452,14.0277 -11.77874,16.17403 -3.53411,1.53111 -11.09313,2.1976 -15.29325,1.34844 z"
       id="path5311"
       inkscape:connector-curvature="0"
       sodipodi:nodetypes="csssscscscssscssscc" />
    <path
       style="opacity:1;fill:#000000;fill-opacity:1;fill-rule:evenodd;stroke:#000000;stroke-width:3;stroke-linecap:round;stroke-linejoin:round;stroke-miterlimit:4;stroke-dasharray:none;stroke-opacity:1"
       d="m 109.4787,839.55855 c -4.27215,-1.15065 -11.260418,-4.53438 -15.810061,-7.65523 -9.680536,-6.64045 -20.679818,-18.51288 -24.315247,-26.24545 -1.767467,-3.75942 -1.84327,-4.43605 -1.760468,-15.71429 0.0632,-8.60853 0.40082,-12.84477 1.252389,-15.71429 0.641224,-2.16071 2.127783,-7.59577 3.303465,-12.0779 1.339249,-5.1057 2.820596,-9.04477 3.966319,-10.5469 2.109347,-2.76549 7.947781,-6.3385 12.096095,-7.40257 1.571428,-0.40308 6.89815,-2.17989 11.837158,-3.94846 4.93901,-1.76857 10.08187,-3.39274 11.42857,-3.60928 3.99592,-0.6425 10.34841,2.18404 15.1048,6.72087 4.72118,4.50323 5.39825,5.98302 3.83156,8.37409 -2.208,3.36984 -3.35493,3.46643 -12.01947,1.01215 -9.37522,-2.65558 -12.70119,-2.59207 -21.760426,0.41553 -7.234901,2.40193 -10.619075,5.17703 -13.631005,11.17772 -4.03853,8.04599 -4.77825,12.26605 -4.737578,27.02761 0.02239,8.12383 0.370383,14.37167 0.90337,16.21874 1.136993,3.94025 7.096696,12.79287 11.090944,16.47464 5.083215,4.68554 8.434253,6.04542 15.809215,6.41551 7.05714,0.35414 14.02886,-0.89495 18.91875,-3.38959 1.66054,-0.84714 5.20795,-4.23249 8.64166,-8.24688 3.20365,-3.74541 6.83099,-7.31704 8.06077,-7.93695 1.22978,-0.61993 3.1638,-1.97436 4.29781,-3.00987 l 2.06184,-1.88274 -0.41238,2.69448 c -0.57452,3.75404 -4.64448,12.91507 -8.00721,18.02337 -4.8018,7.29439 -9.33629,11.31955 -14.32238,12.71364 -5.17066,1.44569 -10.73079,1.48505 -15.82849,0.11205 z"
       id="path5313"
       inkscape:connector-curvature="0" />
    <path
       style="opacity:1;fill:#000000;fill-opacity:1;fill-rule:evenodd;stroke:#000000;stroke-width:3;stroke-linecap:round;stroke-linejoin:round;stroke-miterlimit:4;stroke-dasharray:none;stroke-opacity:1"
       d="m 328.44725,844.96526 c -3.05526,-1.6615 -5.42475,-4.71514 -6.03799,-7.78134 -0.9675,-4.83751 6.23717,-13.87334 11.77586,-14.76886 6.94122,-1.12228 16.04697,-6.07679 16.3786,-8.91172 0.30256,-2.58648 -3.73976,-8.32743 -7.05407,-10.01827 -3.57143,-1.82201 -9.1842,-1.81139 -15.82886,0.0299 -5.98939,1.65974 -9.73844,1.81579 -11.56347,0.48129 -2.04458,-1.49504 -0.82284,-3.65704 4.46689,-7.90465 9.414,-7.55937 15.00827,-9.04375 22.00737,-5.83946 7.31017,3.3467 8.62264,5.31917 11.91442,17.90568 1.64716,6.29813 6.21833,34.7686 6.19727,36.88316 -0.004,0.43748 -0.83122,-5.07066 -1.83748,-6.34745 -1.00626,-1.27678 -2.41306,-2.32143 -3.12622,-2.32143 -0.71315,0 -2.99241,1.16648 -5.06501,2.59218 -9.43129,6.48759 -17.38418,8.63471 -22.22731,6.00093 z m 13.14752,-5.20094 c 7.81451,-3.5776 10.91623,-7.9889 10.4209,-14.82074 l -0.23305,-3.21429 -3.92857,0.0317 c -8.21851,0.0663 -17.19827,4.61023 -18.99375,9.61115 -1.17778,3.28047 -1.24036,8.75764 -0.11339,9.92431 1.33235,1.37928 8.30463,0.54782 12.84786,-1.53214 z"
       id="path5315"
       inkscape:connector-curvature="0"
       sodipodi:nodetypes="cssssssssscssscccscssscc" />
    <path
       style="opacity:1;fill:#000000;fill-opacity:1;fill-rule:evenodd;stroke:#000000;stroke-width:2;stroke-linecap:round;stroke-linejoin:round;stroke-miterlimit:4;stroke-dasharray:none;stroke-opacity:1"
       d="m 385.39287,849.74593 c -1.96616,-3.00074 -3.16453,-13.21219 -4.62911,-39.44521 -0.4379,-7.84369 -1.01063,-12.3006 -1.82585,-14.20859 -1.43001,-3.34689 -0.963,-5.72679 1.43169,-7.29585 2.50446,-1.64099 5.15511,-0.39572 9.66784,4.54192 l 3.58774,3.92556 7.77788,-1.56958 c 9.47565,-1.91218 10.07504,-1.69317 12.99579,4.7484 2.27143,5.00952 3.41182,5.32272 3.66603,8.89254 0.26833,3.7681 4.04175,5.52676 2.08119,3.23344 -3.03822,-3.55386 -12.58882,-13.33472 -14.13388,-13.3366 -2.58931,-0.003 -8.22989,3.51726 -10.3051,6.43163 -1.3354,1.87539 -4.43038,8.79438 -6.82723,15.26265 -0.75716,2.0433 -1.02584,6.28837 -1.02584,16.20785 0,7.77745 -0.28771,13.61728 -0.68291,13.86153 -0.37559,0.23213 -1.17582,-0.33023 -1.77827,-1.24969 z"
       id="path5317"
       inkscape:connector-curvature="0"
       sodipodi:nodetypes="csssscsssscsssscc" />
    <path
       style="opacity:1;fill:#000000;fill-opacity:1;fill-rule:evenodd;stroke:#000000;stroke-width:3;stroke-linecap:round;stroke-linejoin:round;stroke-miterlimit:4;stroke-dasharray:none;stroke-opacity:1"
       d="m 448.56797,844.76501 c -2.7492,-1.87658 -4.99964,-5.74006 -4.99964,-8.58323 0,-6.38778 7.30649,-14.09419 13.36441,-14.09591 2.12728,-6e-4 9.72376,-3.33514 13.14072,-5.76823 2.72279,-1.9388 2.64584,-4.0746 -0.28525,-7.91752 -5.14515,-6.74575 -7.97873,-7.37159 -21.87973,-4.83248 -4.46007,0.81466 -8.86832,1.29068 -9.79611,1.05782 -6.85895,-1.72149 9.58802,-16.04251 18.48402,-16.09476 3.36518,-0.0198 9.14418,2.1495 12.45617,4.67567 3.14581,2.39942 4.72006,5.87864 6.96703,15.39762 2.18923,9.27437 6.94238,35.57691 6.47124,36.04806 -0.19309,0.19308 -1.06535,-3.43136 -1.06535,-3.9076 0,-1.16794 -3.2694,-4.3723 -4.46105,-4.3723 -0.525,0 -3.47648,1.5925 -6.55884,3.53889 -9.82585,6.20462 -17.39433,7.88691 -21.83762,4.85397 z m 11.04428,-3.70598 c 8.49478,-2.55655 13.90472,-8.43015 13.9404,-15.13513 0.0214,-4.01995 -1.16649,-4.86135 -6.05248,-4.28709 -8.24195,0.96868 -15.30423,4.85977 -17.24325,9.50048 -1.20356,2.88054 -1.27385,8.93531 -0.11716,10.09201 1.15575,1.15574 5.31491,1.08098 9.47249,-0.17027 z"
       id="path5319"
       inkscape:connector-curvature="0"
       sodipodi:nodetypes="ssssssscsscssssssssss" />
    <path
       style="fill:#000000;fill-rule:evenodd;stroke:#000000;stroke-width:1px;stroke-linecap:butt;stroke-linejoin:miter;stroke-opacity:1"
       d="m 258.09398,799.31899 2.52538,0 c 0.0842,0 0.17724,0.0376 0.25254,0 0.43902,-0.21951 0.83651,-0.51408 1.26269,-0.75761 0.16343,-0.0934 0.37197,-0.11944 0.50507,-0.25254 0.1331,-0.1331 -1.70463,-1.01015 0.25254,-0.50508 0.29762,-0.17857 0.6879,-0.12363 1.01015,-0.25254 0.11054,-0.0442 -2.12678,-0.19929 -2.0203,-0.25253 0.0753,-0.0376 -1.02231,0.0376 -0.94702,0 0.10844,-0.0542 1.00596,-1.00386 1.01015,-1.01016 0.0467,-0.07 1.16196,-0.42978 1.19956,-0.50507 0.0532,-0.10648 2.60956,0.0842 2.52538,0 -0.11905,-0.11905 -0.33672,0 -0.50508,0 l -1.51523,0 c -0.0842,0 -2.97948,0.60581 -2.90419,0.56821 0.10648,-0.0532 3.32509,-0.73657 3.40927,-0.82075 0.51869,-0.51869 -1.46356,-0.48644 -0.63134,-0.69448 1.16073,-0.29018 1.44626,0.1894 2.14657,0.1894 0.63257,0 -0.0934,0.0467 1.01015,-0.50507 0.0753,-0.0376 0.16836,0 0.25254,0 l 0.25254,0 1.26269,0 0.25254,0 c 0.0842,0 0.17724,0.0376 0.25254,0 0.10647,-0.0532 0.14605,-0.1993 0.25253,-0.25254 0.0753,-0.0376 0.16836,0 0.25254,0 0.25254,0 0.53174,-0.11294 0.75762,0 0.0753,0.0376 0.0204,0.17087 0,0.25254 -0.0646,0.25825 -0.13349,0.51952 -0.25254,0.75761 -0.10648,0.21296 -0.3986,0.29212 -0.50508,0.50508 -0.72817,1.45634 0.328,0.0678 -0.75761,1.51523 -0.24706,0.3294 -0.79318,0.68468 -1.01016,1.01015 -0.10441,0.15662 -0.0959,0.40066 -0.25253,0.50508 -0.14009,0.0934 -0.34536,-0.0532 -0.50508,0 -0.11294,0.0376 -0.16836,0.16835 -0.25254,0.25253 -0.16836,0.16836 -0.29212,0.3986 -0.50507,0.50508 -0.15873,0.0794 -0.85143,-0.0794 -1.01016,0 -0.10648,0.0532 -0.13704,0.22366 -0.25253,0.25254 -0.245,0.0612 -0.50508,0 -0.75762,0 -0.0842,0 -0.1825,-0.0467 -0.25254,0 -0.1981,0.13207 -0.28401,0.41665 -0.50507,0.50507 -0.23448,0.0938 -0.50852,-0.0415 -0.75762,0 -0.26257,0.0438 -0.49936,0.18798 -0.75761,0.25254 -0.21518,0.0538 -0.53496,0 -0.75762,0 l -2.27284,0 -0.25254,0 c -0.16836,0 -11.04854,1.87299 -11.04854,1.70463 0,-0.16836 11.04854,-1.53627 11.04854,-1.70463 0,-0.18823 -0.43517,-0.0778 -0.50507,-0.25254 -0.12506,-0.31263 0,-0.67343 0,-1.01015 z"
       id="path5331"
       inkscape:connector-curvature="0"
       sodipodi:nodetypes="csccsccccccssscscscsccsccscccsscccscccsccccscssssc" />
    <path
       style="fill:none;fill-rule:evenodd;stroke:#000000;stroke-width:1px;stroke-linecap:butt;stroke-linejoin:miter;stroke-opacity:1"
       d="m 415.53572,809.32649 c 0.23809,0.2381 0.50394,0.45135 0.71428,0.71429 0.0192,0.0239 -0.0158,0.63533 0,0.71428 0.0369,0.18458 0.13292,0.3531 0.17857,0.53572 0.15873,0.63492 -0.47619,-0.71429 0,0.71428 0.0679,0.2036 0.26117,0.34376 0.35715,0.53572 0.0266,0.0532 -0.033,0.12904 0,0.17857 0.0934,0.14008 0.28185,0.20656 0.35714,0.35714 0.0532,0.10648 0,0.2381 0,0.35714 0,0.0595 -0.0421,0.13648 0,0.17857 0.0941,0.0941 0.28331,0.0678 0.35714,0.17858 0.0854,0.12816 -0.0626,0.7051 0,0.89285 0.0421,0.12627 0.14629,0.22802 0.17857,0.35715 0.0568,0.22707 -0.0571,0.66454 0,0.89285 0.0457,0.18261 0.13292,0.35311 0.17857,0.53572 0.038,0.15215 0,0.37827 0,0.53571 0,0.35714 0,0.71429 0,1.07143 0,0.2381 0,0.47619 0,0.71429 0,0.11904 -0.0442,0.24661 0,0.35714 0.11905,0.23809 0.2381,0.47619 0.35715,0.71428 0.0595,0.0595 0.14092,0.10328 0.17857,0.17858 0.0337,0.0675 0,0.84727 0,1.07142 0,0.2381 0,0.47619 0,0.71429 0,0.0595 0,0.11905 0,0.17857 0,0.0595 -0.0266,0.12533 0,0.17857 0.0376,0.0753 0.15815,0.0969 0.17857,0.17857 0.0614,0.24559 -0.0592,0.65627 0,0.89286 0.0456,0.18261 0.13292,0.3531 0.17857,0.53572 0.0144,0.0577 -0.0266,0.12533 0,0.17857 0.0376,0.0753 0.14093,0.10328 0.17857,0.17857 0.0266,0.0532 -0.0266,0.12533 0,0.17857 -0.099,0.44226 0.40262,0.44809 0.53572,0.71429 0.0266,0.0532 -0.0266,0.12533 0,0.17857 0.0376,0.0753 0.14092,0.10328 0.17857,0.17857 0.0266,0.0532 0,0.11905 0,0.17857 0,0.17857 -0.0294,0.35957 0,0.53571 0.0309,0.18567 0.13292,0.35311 0.17857,0.53572 0.0456,0.18234 -0.0572,0.95697 0,1.07143 0.0753,0.15058 0.26375,0.21706 0.35714,0.35714 0.0597,0.0895 -0.0586,0.80499 0,0.89286 0.0934,0.14008 0.28185,0.20656 0.35715,0.35714 0.0561,0.11224 -0.0561,0.60205 0,0.71429 0.096,0.19195 0.26116,0.34375 0.35714,0.53571 0.0266,0.0532 -0.0188,0.1221 0,0.17857 0.0421,0.12627 0.15247,0.22663 0.17857,0.35714 0.035,0.17511 0,0.35715 0,0.53572 0,0.41667 0,0.83333 0,1.25 0,0.11905 -0.0233,0.24041 0,0.35714 0.0481,0.24066 0.13822,0.4722 0.17857,0.71429 0.0196,0.11742 0,0.23809 0,0.35714 0,0.42223 -0.0951,1.06365 0.17857,1.42857 0.0799,0.10648 0.26303,0.0845 0.35715,0.17857 0.022,0.0221 0,0.60231 0,0.71429 0,0.47619 0,0.95238 0,1.42857 0,0.11905 0.0376,0.2442 0,0.35714 -0.0266,0.0799 -0.14093,0.10328 -0.17858,0.17857 -0.0266,0.0532 0,0.11905 0,0.17858 0,0.41666 0,0.83333 0,1.25 0,0.11904 0.0376,0.2442 0,0.35714 -0.0266,0.0799 -0.14092,0.10328 -0.17857,0.17857 -0.0266,0.0532 0,0.11905 0,0.17857 0,0.0595 -0.033,0.12905 0,0.17857 0.0934,0.14009 0.21706,0.26376 0.35715,0.35715 0.0495,0.033 0.11904,0 0.17857,0 0.29762,0 0.59523,0 0.89285,0 0.41667,0 0.83334,0 1.25,0 0.2381,0 0.4833,0.0577 0.71429,0 0.33843,-0.0846 0.0953,-0.1906 0.17857,-0.35715 0.0376,-0.0753 0.14093,-0.10328 0.17857,-0.17857 0.0266,-0.0532 0,-0.11905 0,-0.17857 0,-0.0595 0,-0.11905 0,-0.17857 0,-0.17857 0,-0.35714 0,-0.53572 0,-0.0595 0,-0.11904 0,-0.17857 0,-0.0595 0.0266,-0.12533 0,-0.17857 -0.0376,-0.0753 -0.15815,-0.0969 -0.17857,-0.17857 -0.0433,-0.17324 0.0799,-0.376 0,-0.53571 -0.0595,-0.11905 -0.26303,-0.0845 -0.35714,-0.17858 -0.0421,-0.0421 0,-0.11904 0,-0.17857 0,-0.0595 0,-0.11904 0,-0.17857 0,-0.17857 0,-0.35714 0,-0.53571 0,-0.11905 0.0376,-0.24421 0,-0.35715 -0.0266,-0.0799 -0.15816,-0.0969 -0.17857,-0.17857 -0.0433,-0.17324 0.0799,-0.37599 0,-0.53571 -0.11294,-0.22588 -0.38419,-0.33369 -0.53572,-0.53572 -0.0357,-0.0476 0,-0.11904 0,-0.17857 0,-0.11904 0.0289,-0.24165 0,-0.35714 -0.0323,-0.12913 -0.13648,-0.23087 -0.17857,-0.35714 -0.0188,-0.0565 0.0266,-0.12533 0,-0.17857 -0.0376,-0.0753 -0.15195,-0.0987 -0.17857,-0.17858 -0.0377,-0.11293 0,-0.23809 0,-0.35714 0,-0.11905 0,-0.23809 0,-0.35714 0,-0.0595 0.0188,-0.1221 0,-0.17857 -0.0421,-0.12627 -0.13648,-0.23088 -0.17857,-0.35715 -0.0188,-0.0565 0.0266,-0.12533 0,-0.17857 -0.096,-0.19196 -0.22838,-0.36402 -0.35714,-0.53571 -0.0505,-0.0673 -0.15816,-0.0969 -0.17858,-0.17857 -0.0433,-0.17324 0,-0.35715 0,-0.53572 0,-0.24715 0.0394,-0.91377 0,-1.07143 -0.0204,-0.0817 -0.14092,-0.10327 -0.17857,-0.17857 -0.0266,-0.0532 0,-0.11904 0,-0.17857 0,-0.29762 0,-0.59524 0,-0.89286 0,-0.0595 0,-0.11904 0,-0.17857 0,-0.0595 0.0266,-0.12533 0,-0.17857 -0.0376,-0.0753 -0.14092,-0.10328 -0.17857,-0.17857 -0.0266,-0.0532 0,-0.11905 0,-0.17857 0,-0.11905 0.0289,-0.24165 0,-0.35714 -0.0323,-0.12913 -0.15975,-0.22539 -0.17857,-0.35715 -0.0421,-0.29463 0,-0.59524 0,-0.89285 0,-0.0595 0.0266,-0.12534 0,-0.17858 -0.14686,-0.29371 -0.56743,-0.24199 -0.71429,-0.53571 -0.0266,-0.0532 0.0144,-0.12082 0,-0.17857 -0.61659,-1.84978 0.1834,0.73843 -0.17857,-1.07143 -0.0378,-0.18885 -0.48654,-0.82729 -0.53571,-0.89286 -0.0279,-0.0371 -0.35218,-0.34225 -0.35714,-0.35714 -0.0377,-0.11294 0.0376,-0.2442 0,-0.35714 -0.0266,-0.0799 -0.16207,-0.096 -0.17858,-0.17857 -0.0467,-0.23348 0.0654,-0.48536 0,-0.71429 -0.059,-0.20636 -0.27743,-0.33645 -0.35714,-0.53571 -0.0442,-0.11054 0,-0.2381 0,-0.35715 -0.17857,-0.17857 -0.38419,-0.33368 -0.53571,-0.53571 -0.0357,-0.0476 0,-0.11905 0,-0.17857 0,-0.17857 0.0294,-0.35958 0,-0.53572 -0.031,-0.18567 -0.13292,-0.3531 -0.17857,-0.53571 -0.0144,-0.0578 0,-0.11905 0,-0.17857 0,-0.2381 0,-0.47619 0,-0.71429 0,-0.11905 0.0376,-0.2442 0,-0.35714 -0.0266,-0.0799 -0.14093,-0.10328 -0.17858,-0.17857 -0.0714,-0.14286 0.0714,-0.39286 0,-0.53572 -0.096,-0.19196 -0.26116,-0.34375 -0.35714,-0.53571 -0.0532,-0.10648 0.0532,-0.25066 0,-0.35714 -0.096,-0.19196 -0.22837,-0.36403 -0.35714,-0.53572 -0.10102,-0.13469 -0.28185,-0.20656 -0.35714,-0.35714 -0.0266,-0.0532 0.0421,-0.13648 0,-0.17857 -0.0941,-0.0941 -0.28332,-0.0678 -0.35715,-0.17857 -0.066,-0.0991 0,-0.2381 0,-0.35715 0,-0.10631 0.0335,-1.00444 0,-1.07143 -0.0753,-0.15058 -0.26375,-0.21706 -0.35714,-0.35714 -0.0351,-0.0526 0,-0.94586 0,-1.07143 0,-0.83333 0,-1.66666 0,-2.5 0,-0.13632 0.0375,-0.95892 0,-1.07143 -0.0421,-0.12626 -0.14629,-0.22801 -0.17857,-0.35714 -0.0289,-0.11549 0.066,-0.25809 0,-0.35714 -0.0738,-0.11075 -0.2464,-0.10474 -0.35714,-0.17857 -0.0701,-0.0467 -0.10328,-0.14093 -0.17858,-0.17857 -0.0532,-0.0266 -0.12533,-0.0266 -0.17857,0 -0.31044,0.15521 -0.59524,0.35714 -0.89285,0.53571 z"
       id="path5333"
       inkscape:connector-curvature="0" />
    <path
       style="fill:#000000;fill-rule:evenodd;stroke:#000000;stroke-width:1px;stroke-linecap:butt;stroke-linejoin:miter;stroke-opacity:1"
       d="m 416.42857,804.8622 c 0,2.3778 -0.15972,-0.0233 0.35715,1.78572 0.049,0.1717 0,0.35714 0,0.53571 0,0.34598 -0.0144,0.44251 0.17857,0.89286 -0.099,0.44226 0.40261,0.44809 0.53571,0.71429 0.0532,0.10648 -0.0376,0.2442 0,0.35714 0.0421,0.12627 0.13648,0.23087 0.17857,0.35714 0.0188,0.0565 -0.0266,0.12533 0,0.17857 0.0377,0.0753 0.14093,0.10328 0.17857,0.17857 0.0532,0.10648 -0.0532,0.25067 0,0.35715 0.0376,0.0753 0.15196,0.0987 0.17858,0.17857 0.0376,0.11294 -0.0532,0.25066 0,0.35714 0.13309,0.2662 0.34979,0.48189 0.53571,0.71429 0.20567,0.25708 0.44681,0.35865 0.53571,0.71428 0.0296,0.11848 0,0.91993 0,1.07143 0,0.11905 -0.0714,0.26191 0,0.35714 1.19354,1.59139 0.112,-0.802 0.53572,0.89286 0.0204,0.0817 0.11905,0.11905 0.17857,0.17857 0.20431,0.20432 0.21139,0.24904 0.53571,0.35715 0.27096,0.0903 0.12489,-0.16982 0.35715,0.17857 0.39342,0.0899 0.0944,0.36735 0.17857,0.53571 0.0376,0.0753 0.14092,0.10328 0.17857,0.17857 0.0266,0.0532 -0.0221,0.12331 0,0.17857 0.0989,0.24716 0.25828,0.46713 0.35714,0.71429 0.0442,0.11053 0,0.2381 0,0.35714 0,0.35715 0,0.71429 0,1.07143 0,0.2381 0,0.47619 0,0.71429 0,0.0595 0,0.23809 0,0.17857 0,-1.09963 -0.0103,0.67287 0,0.71428 0.0408,0.16334 0.28185,0.20656 0.35715,0.35715 0.0842,0.16836 0.13291,0.3531 0.17857,0.53571 0.0144,0.0578 -0.0266,0.12533 0,0.17857 0.0376,0.0753 0.14092,0.10328 0.17857,0.17857 0.0591,0.11812 -0.063,0.76692 0,0.89286 0.0595,0.11905 0.26303,0.0845 0.35714,0.17857 0.0421,0.0421 0,0.11905 0,0.17857 0,0.0595 0,0.11905 0,0.17858 0,0.53571 0,1.07142 0,1.60714 0,0.89286 0,1.78571 0,2.67857 0,0.0413 -0.0319,1.00765 0,1.07143 0.40863,0.81725 -0.074,-0.75775 0.35714,0.53571 0.0535,0.16044 -0.0411,0.37124 0,0.53572 0.0457,0.18261 0.13292,0.3531 0.17858,0.53571 0.042,0.16811 -0.034,0.36559 0,0.53572 0.0481,0.24065 0.13044,0.47362 0.17857,0.71428 0.0233,0.11674 -0.0442,0.24661 0,0.35714 0.0989,0.24716 0.25228,0.46961 0.35714,0.71429 0.0741,0.17301 0.0944,0.36736 0.17857,0.53571 0.0376,0.0753 0.11905,0.11905 0.17857,0.17858 0.11905,0.11904 0.26376,0.21706 0.35715,0.35714 0.0518,0.0778 -0.0471,0.44145 0,0.53571 0.0376,0.0753 0.14092,0.10328 0.17857,0.17857 0.0266,0.0532 0,0.11905 0,0.17858 0,0.11904 -0.0289,0.24165 0,0.35714 0.0323,0.12912 0.15247,0.22663 0.17857,0.35714 0.001,0.005 -0.0321,0.82862 0,0.89286 0.0753,0.15058 0.3039,0.19742 0.35714,0.35714 0.0376,0.11294 0,0.2381 0,0.35714 0,0.0595 -0.0266,0.12534 0,0.17858 0.22066,0.44132 0.17857,-0.0616 0.17857,0.35714 0,0.23809 0,0.47619 0,0.71428 0,0.0595 0,0.11905 0,0.17858 0,0.0595 -0.0421,0.13648 0,0.17857 0.0941,0.0941 0.26303,0.0845 0.35715,0.17857 0.0421,0.0421 0,0.11905 0,0.17857 0,0.21407 0.033,1.32947 0,1.42857 -0.0441,0.13228 -0.84877,0.76058 -0.89286,0.89286 -0.0376,0.11294 0.0376,0.2442 0,0.35714 -0.0266,0.0799 -0.11905,0.11905 -0.17857,0.17857 -0.0595,0.0595 -0.10853,0.13188 -0.17857,0.17857 -0.11075,0.0738 -0.26303,0.0845 -0.35715,0.17858 -0.0421,0.0421 0.0266,0.12533 0,0.17857 -0.0376,0.0753 -0.13187,0.10853 -0.17857,0.17857 -0.0738,0.11074 -0.0845,0.26303 -0.17857,0.35714 -0.0421,0.0421 -0.11905,0 -0.17857,0 -0.0595,0 -0.11905,0 -0.17857,0 -0.25903,0 -0.56787,0.11426 -0.71429,-0.17857 -0.0266,-0.0532 0.033,-0.12904 0,-0.17857 -0.0934,-0.14008 -0.29462,-0.20083 -0.35714,-0.35714 -0.0663,-0.1658 0.0799,-0.376 0,-0.53572 -0.0595,-0.11905 -0.26303,-0.0844 -0.35714,-0.17857 -0.0252,-0.0252 0.0188,-0.79897 0,-0.89286 -0.0369,-0.18457 -0.13292,-0.3531 -0.17858,-0.53571 -0.0144,-0.0578 0,-0.11905 0,-0.17857 0,-0.34025 0.0376,-0.56853 -0.17857,-0.89286 -0.14008,-0.21012 -0.38419,-0.33368 -0.53571,-0.53571 -0.0199,-0.0266 0.003,-0.7045 0,-0.71429 -0.0266,-0.0799 -0.11905,-0.11905 -0.17857,-0.17857 -0.11905,-0.11905 -0.28185,-0.20656 -0.35715,-0.35714 -0.0261,-0.0523 0,-0.92527 0,-1.07143 0,-0.95238 0,-1.90476 0,-2.85715 0,-0.21407 0.033,-1.32946 0,-1.42857 -0.0266,-0.0799 -0.11904,-0.11904 -0.17857,-0.17857 -0.18152,-0.18152 -0.28507,-0.24742 -0.35714,-0.53571 -0.0289,-0.1155 0,-0.2381 0,-0.35715 0,-0.0595 0.0266,-0.12533 0,-0.17857 -0.096,-0.19196 -0.27744,-0.33645 -0.35714,-0.53571 -0.0442,-0.11053 0.0289,-0.24165 0,-0.35714 -0.0323,-0.12913 -0.13649,-0.23088 -0.17857,-0.35715 -0.051,-0.15297 0.0394,-0.55674 0,-0.71428 -0.0323,-0.12913 -0.13649,-0.23088 -0.17858,-0.35715 -0.051,-0.15297 0.0394,-0.55674 0,-0.71428 -0.1043,-0.41722 -0.39135,-0.45978 -0.53571,-0.89286 -0.061,-0.18307 0.062,-1.12603 0,-1.25 -0.0753,-0.15058 -0.26375,-0.21706 -0.35714,-0.35714 -0.033,-0.0495 0,-0.11905 0,-0.17857 0,-0.0595 0,-0.11905 0,-0.17857 0,-0.2381 0,-0.47619 0,-0.71429 0,-0.0595 0,-0.11905 0,-0.17857 0,-0.0595 0.0266,-0.12533 0,-0.17857 -0.0376,-0.0753 -0.14093,-0.10328 -0.17857,-0.17857 -0.0472,-0.0944 0.0217,-0.62729 0,-0.71429 -0.21558,-0.86231 -0.0849,0.009 -0.35715,-0.53571 -0.0266,-0.0532 0,-0.11905 0,-0.17858 0,-0.17542 0.0394,-0.95332 0,-1.07142 -0.0421,-0.12627 -0.13648,-0.23088 -0.17857,-0.35715 -0.043,-0.12901 0.0492,-0.64044 0,-0.71428 -0.39923,-0.59885 -0.35714,-0.11821 -0.35714,-0.53572 0,-0.81291 0.0842,-0.0102 -0.17857,-0.53571 -0.0266,-0.0532 0,-0.11905 0,-0.17857 0,-0.11905 0.0376,-0.24421 0,-0.35715 -0.0532,-0.15971 -0.28185,-0.20655 -0.35715,-0.35714 -0.0266,-0.0532 0,-0.11905 0,-0.17857 0,-0.0595 0,-0.11905 0,-0.17857 0,-0.35714 0,-0.71429 0,-1.07143 0,-1.13095 0,-2.2619 0,-3.39286 0,-0.17857 0,-0.35714 0,-0.53571 0,-0.0595 0.0266,-0.12533 0,-0.17857 -0.0376,-0.0753 -0.14092,-0.10328 -0.17857,-0.17857 -0.0337,-0.0675 0,-0.84728 0,-1.07143 0,-0.2381 0,-0.47619 0,-0.71429 0,-0.0595 0,-0.11905 0,-0.17857 0,-0.0595 -0.0595,-0.17857 0,-0.17857 0.0595,0 0,0.11905 0,0.17857"
       id="path5335"
       inkscape:connector-curvature="0" />
  </g>
</svg>
