<?xml version="1.0" encoding="UTF-8" standalone="no"?>
<!-- Created with Inkscape (http://www.inkscape.org/) -->

<svg
   xmlns:dc="http://purl.org/dc/elements/1.1/"
   xmlns:cc="http://creativecommons.org/ns#"
   xmlns:rdf="http://www.w3.org/1999/02/22-rdf-syntax-ns#"
   xmlns:svg="http://www.w3.org/2000/svg"
   xmlns="http://www.w3.org/2000/svg"
   xmlns:sodipodi="http://sodipodi.sourceforge.net/DTD/sodipodi-0.dtd"
   xmlns:inkscape="http://www.inkscape.org/namespaces/inkscape"
   width="29.89422mm"
   height="37.657555mm"
   viewBox="0 0 105.9244 133.43228"
   id="svg2"
   version="1.1"
   inkscape:version="0.91 r13725"
   sodipodi:docname="icon-c.svg">
  <defs
     id="defs4" />
  <sodipodi:namedview
     id="base"
     pagecolor="#ffffff"
     bordercolor="#666666"
     borderopacity="1.0"
     inkscape:pageopacity="0.0"
     inkscape:pageshadow="2"
     inkscape:zoom="0.98994949"
     inkscape:cx="-183.99641"
     inkscape:cy="146.95947"
     inkscape:document-units="px"
     inkscape:current-layer="layer1"
     showgrid="false"
     fit-margin-top="0"
     fit-margin-left="0"
     fit-margin-right="0"
     fit-margin-bottom="0"
     inkscape:window-width="1920"
     inkscape:window-height="1018"
     inkscape:window-x="-8"
     inkscape:window-y="730"
     inkscape:window-maximized="1" />
  <metadata
     id="metadata7">
    <rdf:RDF>
      <cc:Work
         rdf:about="">
        <dc:format>image/svg+xml</dc:format>
        <dc:type
           rdf:resource="http://purl.org/dc/dcmitype/StillImage" />
        <dc:title></dc:title>
      </cc:Work>
    </rdf:RDF>
  </metadata>
  <g
     inkscape:label="Layer 1"
     inkscape:groupmode="layer"
     id="layer1"
     transform="translate(-224.51166,-385.67047)">
    <g
       id="g4183">
      <path
         inkscape:connector-curvature="0"
         id="path4149"
         d="m 278.68594,516.98143 c -9.09095,-1.67073 -10.72084,-2.43324 -23.125,-10.81849 -12.67182,-8.5662 -22.69835,-19.28055 -26.97123,-28.82144 -3.3523,-7.48533 -3.58339,-9.05169 -3.57796,-24.25216 0.005,-13.26462 0.47418,-17.51305 2.55529,-23.125 1.40221,-3.78125 3.02209,-9.82265 3.59972,-13.42533 1.9657,-12.26005 8.66301,-18.9879 21.68085,-21.77973 3.5018,-0.751 10.3261,-2.97891 15.16512,-4.95091 16.3671,-6.66994 28.89036,-4.1748 37.86071,7.54338 4.36043,5.69613 5.56001,12.61259 2.1875,12.61259 -1.03125,0 -1.875,1.09951 -1.875,2.44336 0,1.81247 -1.15376,2.65981 -4.46837,3.28163 -2.74357,0.5147 -5.01133,0.29531 -5.875,-0.56836 -0.77365,-0.77365 -2.6813,-1.40663 -4.23922,-1.40663 -1.55793,0 -4.83266,-0.95377 -7.27719,-2.11948 -3.92631,-1.87233 -5.35245,-1.93289 -12.22991,-0.51936 -14.31265,2.94169 -20.20436,8.47258 -25.44722,23.88884 -2.97542,8.74902 -2.98088,31.90682 -0.009,38.86941 2.66696,6.24855 11.20105,16.75278 17.05724,20.99498 6.93314,5.02234 13.30619,5.74258 23.62387,2.66985 9.56604,-2.84889 11.13254,-4.03509 18.59402,-14.0799 3.34958,-4.50928 6.58664,-7.48693 8.72175,-8.02281 1.86739,-0.46868 4.42697,-2.16376 5.68795,-3.76684 2.62785,-3.34083 9.6112,-4.14056 9.6112,-1.10068 0,4.04321 -3.96893,16.7618 -7.43039,23.81099 -2.02556,4.125 -6.66673,10.61584 -10.31372,14.42408 -6.11025,6.38042 -7.28016,7.04291 -14.90001,8.4375 -4.54802,0.83238 -8.76677,1.45948 -9.375,1.39357 -0.60823,-0.0659 -4.76213,-0.7918 -9.23088,-1.61306 z m 19.343,-2.86491 c 9.9219,-1.63831 25.33042,-22.89329 27.47668,-37.90218 l 0.80437,-5.625 -2.96191,3.24549 c -1.62905,1.78502 -4.45696,3.62072 -6.28425,4.07934 -2.05092,0.51475 -5.36072,3.57797 -8.64884,8.00451 -7.49502,10.08997 -9.01463,11.22703 -18.96431,14.19017 -10.37861,3.09089 -20.02631,2.5383 -26.59838,-1.52345 -5.61699,-3.4715 -14.83005,-14.21821 -18.08667,-21.09747 -3.75798,-7.93832 -4.12459,-34.70857 -0.6166,-45.02359 3.111,-9.14768 7.96008,-16.76792 12.30238,-19.33298 6.41355,-3.78857 19.9797,-6.89396 24.77642,-5.6715 11.80939,3.00967 15.67109,4.17859 16.62602,5.0326 1.81306,1.62147 5.83209,-0.22119 5.83209,-2.67391 0,-1.29481 0.84375,-2.35421 1.875,-2.35421 2.80578,0 2.30445,-1.74465 -2.1875,-7.61259 -5.12175,-6.69066 -12.56051,-11.01398 -19.0625,-11.07891 -2.75,-0.0275 -8.9592,1.56353 -13.79821,3.53553 -4.83902,1.972 -11.66332,4.19991 -15.16512,4.95091 -13.01784,2.79183 -19.71515,9.51968 -21.68085,21.77973 -0.57763,3.60268 -2.19751,9.64408 -3.59972,13.42533 -1.99285,5.37395 -2.55075,9.8771 -2.55529,20.625 -0.005,12.44885 0.33332,14.50723 3.57796,21.75216 5.33593,11.91457 21.79984,27.34033 38.84623,36.39671 6.41148,3.40629 17.81781,4.57494 28.093,2.87831 z"
         style="fill:#000000;fill-opacity:1;stroke:#000000;stroke-opacity:1" />
      <path
         inkscape:connector-curvature="0"
         id="path4181"
         d="m 282.45819,514.99704 c -5.5237,-0.67121 -9.70266,-1.86484 -13.37501,-3.82028 -15.59122,-8.30198 -31.9083,-23.384 -37.6229,-34.77519 -3.88241,-7.73899 -4.45337,-11.13384 -4.2318,-25.16168 0.17597,-11.14103 0.40209,-12.70582 2.93265,-20.29459 1.29208,-3.87476 2.38757,-8.12026 3.29973,-12.78791 1.54867,-7.92472 4.7016,-13.04382 10.29899,-16.72145 2.80543,-1.84324 6.00304,-3.13655 10.82081,-4.37661 5.04222,-1.29782 9.02252,-2.56914 14.70305,-4.69619 9.99781,-3.74364 14.52657,-4.54168 19.13186,-3.37134 2.37365,0.60321 5.52159,2.06435 8.01828,3.72174 4.77241,3.16808 11.71894,11.9102 11.17764,14.0669 -0.14565,0.58035 -1.2202,1.14916 -2.17088,1.14916 -0.65064,0 -1.1895,0.764 -1.3866,1.96593 -0.21781,1.32821 -1.16574,2.50063 -2.51875,3.11522 -1.45399,0.66045 -2.52473,0.59014 -4.02031,-0.26402 -1.48369,-0.84736 -5.02276,-1.95811 -12.18422,-3.82406 l -5.01912,-1.30776 -3.28299,0.14253 c -5.6216,0.24406 -13.43357,2.27042 -18.78572,4.87286 -3.75165,1.82421 -6.74698,5.1617 -9.83336,10.95666 -4.77631,8.96792 -6.18972,15.8759 -6.2005,30.30458 -0.009,11.55685 1.02015,19.45451 3.10202,23.81331 2.45693,5.14408 9.58752,13.96038 14.83068,18.33677 2.85806,2.38557 5.56333,3.80029 9.07144,4.74388 2.30619,0.6203 2.91585,0.67679 7.43663,0.68903 5.50641,0.0149 7.41929,-0.24841 12.56655,-1.72995 4.07363,-1.17251 7.27454,-2.39179 9.05089,-3.44763 2.1217,-1.26111 4.89715,-4.12788 8.29248,-8.5653 5.40005,-7.05743 7.39578,-8.97266 10.78851,-10.35334 2.61888,-1.06576 4.20889,-2.25542 7.06682,-5.28746 1.84562,-1.95805 2.4805,-2.50018 2.38536,-2.03687 -0.0713,0.34724 -0.36639,2.27915 -0.65575,4.29315 -0.60315,4.19799 -1.43029,7.47947 -2.70536,10.73287 -3.14556,8.02602 -9.77536,18.10877 -15.31403,23.28993 -4.15227,3.88424 -7.19599,5.61361 -11.02448,6.26383 -2.8309,0.4808 -11.83676,0.70423 -14.64261,0.36328 z"
         style="opacity:1;fill:#000000;fill-opacity:1;fill-rule:evenodd;stroke:#000000;stroke-width:0.50507629;stroke-linecap:round;stroke-linejoin:round;stroke-miterlimit:4;stroke-dasharray:none;stroke-opacity:1" />
    </g>
  </g>
</svg>
